# xmcd
#
# Track frame offsets:
# 150
# 24017
# 53147
# 71970
# 91042
# 114190
# 134367
# 154560
# 178687
# 202802
# 223695
#
# Disc length: 3274 seconds
#
#
# Revision: 0
# Processed by: cddbd v1.5.2PL0 Copyright (c) Steve Scherf et al.
# Submitted via: FreeRIP 2.945 
#
DISCID=890cc80b
DTITLE=Natalie Cole - Everlasting
DYEAR=1991
DGENRE=Blues
TTITLE0=Everlasting
TTITLE1=Jump start
TTITLE2=The urge to merge
TTITLE3=Split decision
TTITLE4=When i fall in love
TTITLE5=Pink cadillac
TTITLE6=Ilive for your love
TTITLE7=In my reality
TTITLE8=I´m the one
TTITLE9=More than the stars
TTITLE10=What i must do
EXTD=
EXTT0=
EXTT1=
EXTT2=
EXTT3=
EXTT4=
EXTT5=
EXTT6=
EXTT7=
EXTT8=
EXTT9=
EXTT10=
PLAYORDER=
